<?xml version="1.0" standalone="no"?>
<!DOCTYPE svg PUBLIC "-//W3C//DTD SVG 20010904//EN"
 "http://www.w3.org/TR/2001/REC-SVG-20010904/DTD/svg10.dtd">
<svg version="1.0" xmlns="http://www.w3.org/2000/svg"
 width="260.000000pt" height="260.000000pt" viewBox="0 0 260.000000 260.000000"
 preserveAspectRatio="xMidYMid meet">
<metadata>
Created by potrace 1.11, written by Peter Selinger 2001-2013
</metadata>
<g transform="translate(0.000000,260.000000) scale(0.100000,-0.100000)"
fill="#000000" stroke="none">
<path d="M0 1300 l0 -1300 1300 0 1300 0 0 1300 0 1300 -1300 0 -1300 0 0
-1300z m896 935 c154 -46 194 -244 70 -353 -77 -67 -185 -67 -262 0 -122 108
-85 306 67 353 57 18 66 18 125 0z m1374 6 c0 -7 -464 -818 -474 -828 -3 -3
-471 808 -474 823 -3 12 74 14 472 14 285 0 476 -4 476 -9z m-1625 -490 c70
-31 125 -113 125 -186 0 -71 -62 -164 -127 -192 -38 -15 -121 -17 -157 -3 -48
18 -104 79 -122 132 -43 130 57 268 196 268 25 0 63 -9 85 -19z m550 0 c95
-43 143 -152 111 -249 -18 -53 -74 -114 -122 -132 -36 -14 -119 -12 -157 3
-65 28 -127 121 -127 192 0 107 100 205 210 205 25 0 63 -9 85 -19z m842 -703
c128 -128 233 -237 233 -243 0 -13 -462 -475 -475 -475 -13 0 -475 462 -475
475 0 13 462 475 475 475 5 0 115 -105 242 -232z m-963 -301 c130 -225 236
-413 236 -418 0 -5 -191 -9 -476 -9 -398 0 -475 2 -472 14 3 15 471 826 474
823 1 -1 108 -186 238 -410z"/>
<path d="M763 2160 c-87 -52 -95 -161 -17 -230 30 -25 43 -30 89 -30 46 0 59
5 89 30 60 53 71 136 25 194 -45 57 -127 73 -186 36z"/>
<path d="M1430 2175 c0 -3 82 -147 182 -320 154 -267 183 -312 193 -297 21 30
355 611 355 617 0 3 -164 5 -365 5 -201 0 -365 -2 -365 -5z"/>
<path d="M500 1692 c-55 -27 -83 -77 -78 -140 11 -134 163 -178 252 -72 38 45
37 125 -1 171 -48 57 -112 72 -173 41z"/>
<path d="M1055 1696 c-17 -7 -43 -28 -58 -45 -38 -46 -39 -126 -1 -171 66 -77
154 -80 223 -6 34 36 40 118 12 163 -39 61 -115 87 -176 59z"/>
<path d="M1597 1002 l-197 -197 198 -198 197 -197 198 198 197 197 -198 198
-197 197 -198 -198z"/>
<path d="M652 715 c-100 -173 -182 -317 -182 -320 0 -3 164 -5 365 -5 201 0
365 2 365 5 0 6 -334 587 -355 617 -10 15 -39 -30 -193 -297z"/>
</g>
</svg>
